<svg xmlns="http://www.w3.org/2000/svg" width="860" height="240" viewBox="0 0 860 240" font-family="ui-monospace, SFMono-Regular, Menlo, Consolas, monospace"><defs><linearGradient id="bg" x1="0" y1="0" x2="0" y2="1"><stop offset="0" stop-color="#111722"/><stop offset="1" stop-color="#0d1117"/></linearGradient><filter id="glow"><feGaussianBlur stdDeviation="2.2" result="blur"/><feMerge><feMergeNode in="blur"/><feMergeNode in="SourceGraphic"/></feMerge></filter></defs><rect width="860" height="240" rx="12" fill="url(#bg)"/><rect x="0.5" y="0.5" width="859" height="239" rx="12" fill="none" stroke="#30363d"/><line x1="0" y1="30" x2="860" y2="30" stroke="#30363d"/><circle cx="20" cy="15" r="5" fill="#ff5f56"/><circle cx="36" cy="15" r="5" fill="#ffbd2e"/><circle cx="52" cy="15" r="5" fill="#27c93f"/><text x="430.0" y="19" fill="#7d8590" font-size="12" text-anchor="middle">eeminionn@github: ~$ ./repo-map.sh</text><text x="28" y="62" fill="#3fb950" font-size="13" font-weight="700">$ ls repos --evidence</text><text x="28" y="84" fill="#c9d1d9" font-size="12" font-weight="400">Concrete work in this profile: code, guides, tests, fabrication notes and concept studies.</text><rect x="28" y="108" width="188" height="54" rx="8" fill="#161b22" stroke="#30363d"/><circle cx="44" cy="126" r="4" fill="#58a6ff"/><text x="56" y="130" fill="#e6edf3" font-size="12.5" font-weight="700">BattleBots</text><text x="42" y="147" fill="#7d8590" font-size="10.5">robot kit</text><text x="42" y="159" fill="#7d8590" font-size="10">ESP32-S3, web control</text><circle cx="202" cy="126" r="2.6" fill="#58a6ff" filter="url(#glow)"><animate attributeName="opacity" values="0.25;1;0.25" dur="1.6s" begin="0.00s" repeatCount="indefinite"/></circle><rect x="234" y="108" width="188" height="54" rx="8" fill="#161b22" stroke="#30363d"/><circle cx="250" cy="126" r="4" fill="#22d3ee"/><text x="262" y="130" fill="#e6edf3" font-size="12.5" font-weight="700">Mustakis</text><text x="248" y="147" fill="#7d8590" font-size="10.5">workshop code</text><text x="248" y="159" fill="#7d8590" font-size="10">motors, PID, rotation tests</text><circle cx="408" cy="126" r="2.6" fill="#22d3ee" filter="url(#glow)"><animate attributeName="opacity" values="0.25;1;0.25" dur="1.6s" begin="0.13s" repeatCount="indefinite"/></circle><rect x="440" y="108" width="188" height="54" rx="8" fill="#161b22" stroke="#30363d"/><circle cx="456" cy="126" r="4" fill="#3fb950"/><text x="468" y="130" fill="#e6edf3" font-size="12.5" font-weight="700">Casino Diorama</text><text x="454" y="147" fill="#7d8590" font-size="10.5">physical interface</text><text x="454" y="159" fill="#7d8590" font-size="10">CNC + Arduino feedback</text><circle cx="614" cy="126" r="2.6" fill="#3fb950" filter="url(#glow)"><animate attributeName="opacity" values="0.25;1;0.25" dur="1.6s" begin="0.26s" repeatCount="indefinite"/></circle><rect x="646" y="108" width="188" height="54" rx="8" fill="#161b22" stroke="#30363d"/><circle cx="662" cy="126" r="4" fill="#ffa657"/><text x="674" y="130" fill="#e6edf3" font-size="12.5" font-weight="700">Puente</text><text x="660" y="147" fill="#7d8590" font-size="10.5">projection study</text><text x="660" y="159" fill="#7d8590" font-size="10">shadows + urban memory</text><rect x="28" y="176" width="188" height="54" rx="8" fill="#161b22" stroke="#30363d"/><circle cx="44" cy="194" r="4" fill="#a371f7"/><text x="56" y="198" fill="#e6edf3" font-size="12.5" font-weight="700">EntoScan</text><text x="42" y="215" fill="#7d8590" font-size="10.5">3D scan concept</text><text x="42" y="227" fill="#7d8590" font-size="10">photogrammetry notes</text><circle cx="202" cy="194" r="2.6" fill="#a371f7" filter="url(#glow)"><animate attributeName="opacity" values="0.25;1;0.25" dur="1.6s" begin="0.52s" repeatCount="indefinite"/></circle><rect x="234" y="176" width="188" height="54" rx="8" fill="#161b22" stroke="#30363d"/><circle cx="250" cy="194" r="4" fill="#e4405f"/><text x="262" y="198" fill="#e6edf3" font-size="12.5" font-weight="700">Walter IoT</text><text x="248" y="215" fill="#7d8590" font-size="10.5">wearable prototype</text><text x="248" y="227" fill="#7d8590" font-size="10">LTE-M, GNSS, SMS</text><circle cx="408" cy="194" r="2.6" fill="#e4405f" filter="url(#glow)"><animate attributeName="opacity" values="0.25;1;0.25" dur="1.6s" begin="0.65s" repeatCount="indefinite"/></circle><rect x="440" y="176" width="188" height="54" rx="8" fill="#161b22" stroke="#30363d"/><circle cx="456" cy="194" r="4" fill="#58a6ff"/><text x="468" y="198" fill="#e6edf3" font-size="12.5" font-weight="700">Othermill UDD</text><text x="454" y="215" fill="#7d8590" font-size="10.5">fabrication guide</text><text x="454" y="227" fill="#7d8590" font-size="10">CNC workshop notes</text></svg>