<svg xmlns="http://www.w3.org/2000/svg" width="860" height="196" viewBox="0 0 860 196" font-family="ui-monospace, SFMono-Regular, Menlo, Consolas, monospace"><defs><linearGradient id="bg" x1="0" y1="0" x2="0" y2="1"><stop offset="0" stop-color="#111722"/><stop offset="1" stop-color="#0d1117"/></linearGradient><filter id="glow"><feGaussianBlur stdDeviation="2.2" result="blur"/><feMerge><feMergeNode in="blur"/><feMergeNode in="SourceGraphic"/></feMerge></filter></defs><rect width="860" height="196" rx="12" fill="url(#bg)"/><rect x="0.5" y="0.5" width="859" height="195" rx="12" fill="none" stroke="#30363d"/><line x1="0" y1="30" x2="860" y2="30" stroke="#30363d"/><circle cx="20" cy="15" r="5" fill="#ff5f56"/><circle cx="36" cy="15" r="5" fill="#ffbd2e"/><circle cx="52" cy="15" r="5" fill="#27c93f"/><text x="430.0" y="19" fill="#7d8590" font-size="12" text-anchor="middle">eeminionn@github: ~$ ./prototype-pipeline.sh</text><text x="28" y="62" fill="#3fb950" font-size="13" font-weight="700">$ build --from idea --to working-system</text><text x="28" y="84" fill="#c9d1d9" font-size="12" font-weight="400">A practical loop for robotics kits, physical interfaces and STEAM workshops.</text><rect x="28" y="110" width="108" height="54" rx="8" fill="#161b22" stroke="#30363d"/><text x="40" y="130" fill="#58a6ff" font-size="11" font-weight="700">01</text><text x="40" y="146" fill="#e6edf3" font-size="13" font-weight="700">Problem</text><text x="40" y="160" fill="#7d8590" font-size="10.5" font-weight="400">learning goal</text><path d="M138 137 H160" stroke="#58a6ff" stroke-width="2" stroke-linecap="round"/><circle cx="138" cy="137" r="3" fill="#58a6ff" filter="url(#glow)"><animate attributeName="cx" values="138;160;138" dur="2.2s" begin="0.00s" repeatCount="indefinite"/></circle><rect x="164" y="110" width="108" height="54" rx="8" fill="#161b22" stroke="#30363d"/><text x="176" y="130" fill="#22d3ee" font-size="11" font-weight="700">02</text><text x="176" y="146" fill="#e6edf3" font-size="13" font-weight="700">CAD</text><text x="176" y="160" fill="#7d8590" font-size="10.5" font-weight="400">fit + enclosure</text><path d="M274 137 H296" stroke="#22d3ee" stroke-width="2" stroke-linecap="round"/><circle cx="274" cy="137" r="3" fill="#22d3ee" filter="url(#glow)"><animate attributeName="cx" values="274;296;274" dur="2.2s" begin="0.18s" repeatCount="indefinite"/></circle><rect x="300" y="110" width="108" height="54" rx="8" fill="#161b22" stroke="#30363d"/><text x="312" y="130" fill="#3fb950" font-size="11" font-weight="700">03</text><text x="312" y="146" fill="#e6edf3" font-size="13" font-weight="700">PCB</text><text x="312" y="160" fill="#7d8590" font-size="10.5" font-weight="400">power + signals</text><path d="M410 137 H432" stroke="#3fb950" stroke-width="2" stroke-linecap="round"/><circle cx="410" cy="137" r="3" fill="#3fb950" filter="url(#glow)"><animate attributeName="cx" values="410;432;410" dur="2.2s" begin="0.36s" repeatCount="indefinite"/></circle><rect x="436" y="110" width="108" height="54" rx="8" fill="#161b22" stroke="#30363d"/><text x="448" y="130" fill="#ffa657" font-size="11" font-weight="700">04</text><text x="448" y="146" fill="#e6edf3" font-size="13" font-weight="700">Firmware</text><text x="448" y="160" fill="#7d8590" font-size="10.5" font-weight="400">control loop</text><path d="M546 137 H568" stroke="#ffa657" stroke-width="2" stroke-linecap="round"/><circle cx="546" cy="137" r="3" fill="#ffa657" filter="url(#glow)"><animate attributeName="cx" values="546;568;546" dur="2.2s" begin="0.54s" repeatCount="indefinite"/></circle><rect x="572" y="110" width="108" height="54" rx="8" fill="#161b22" stroke="#30363d"/><text x="584" y="130" fill="#a371f7" font-size="11" font-weight="700">05</text><text x="584" y="146" fill="#e6edf3" font-size="13" font-weight="700">UX</text><text x="584" y="160" fill="#7d8590" font-size="10.5" font-weight="400">test with users</text><path d="M682 137 H704" stroke="#a371f7" stroke-width="2" stroke-linecap="round"/><circle cx="682" cy="137" r="3" fill="#a371f7" filter="url(#glow)"><animate attributeName="cx" values="682;704;682" dur="2.2s" begin="0.72s" repeatCount="indefinite"/></circle><rect x="708" y="110" width="108" height="54" rx="8" fill="#161b22" stroke="#30363d"/><text x="720" y="130" fill="#e4405f" font-size="11" font-weight="700">06</text><text x="720" y="146" fill="#e6edf3" font-size="13" font-weight="700">Docs</text><text x="720" y="160" fill="#7d8590" font-size="10.5" font-weight="400">kit docs</text></svg>