<svg xmlns="http://www.w3.org/2000/svg" width="560" height="360" viewBox="0 0 560 360" font-family="ui-monospace, SFMono-Regular, Menlo, Consolas, monospace"><defs><linearGradient id="ibg" x1="0" y1="0" x2="0" y2="1"><stop offset="0" stop-color="#111722"/><stop offset="1" stop-color="#0d1117"/></linearGradient></defs><rect width="560" height="360" rx="10" fill="url(#ibg)"/><rect x="0.5" y="0.5" width="559" height="359" rx="10" fill="none" stroke="#30363d"/><line x1="0" y1="34" x2="560" y2="34" stroke="#30363d"/><circle cx="24" cy="17.0" r="5" fill="#ff5f56"/><circle cx="42" cy="17.0" r="5" fill="#ffbd2e"/><circle cx="60" cy="17.0" r="5" fill="#27c93f"/><text x="280.0" y="21.5" fill="#7d8590" font-size="13" text-anchor="middle">eeminionn@github: ~$ neofetch</text><text x="24" y="68" font-size="19" font-weight="700"><tspan fill="#3fb950">eeminionn</tspan><tspan fill="#7d8590">@</tspan><tspan fill="#22d3ee">github</tspan></text><line x1="190" y1="62" x2="536" y2="62" stroke="#30363d"/><rect x="527" y="51" width="9" height="16" fill="#e6edf3"><animate attributeName="opacity" values="1;1;0;0" keyTimes="0;0.48;0.49;1" dur="1s" repeatCount="indefinite"/></rect><g><text x="24" y="108" fill="#ffa657" font-size="15" font-weight="700">Name</text><text x="154" y="108" fill="#e6edf3" font-size="17">Emilio Abarca</text></g><g><text x="24" y="146" fill="#ffa657" font-size="15" font-weight="700">Role</text><text x="154" y="146" fill="#e6edf3" font-size="17">Interaction Design @ UDD</text></g><g><text x="24" y="184" fill="#ffa657" font-size="15" font-weight="700">Build</text><text x="154" y="184" fill="#e6edf3" font-size="17">Embedded + physical interfaces</text></g><g><text x="24" y="222" fill="#ffa657" font-size="15" font-weight="700">Code</text><text x="154" y="222" fill="#e6edf3" font-size="17">C/C++, Python, JavaScript</text></g><g><text x="24" y="260" fill="#ffa657" font-size="15" font-weight="700">Hardware</text><text x="154" y="260" fill="#e6edf3" font-size="17">ESP32, Arduino, motors, sensors</text></g><g><text x="24" y="298" fill="#ffa657" font-size="15" font-weight="700">Making</text><text x="154" y="298" fill="#e6edf3" font-size="17">CNC, PCB, 3D printing</text></g><g><text x="24" y="336" fill="#ffa657" font-size="15" font-weight="700">Community</text><text x="154" y="336" fill="#e6edf3" font-size="17">EIRI UDD / Fundacion Mustakis</text></g></svg>