<svg xmlns="http://www.w3.org/2000/svg" width="420" height="300" viewBox="0 0 420 300" font-family="ui-monospace, SFMono-Regular, Menlo, Consolas, monospace"><defs><linearGradient id="bg" x1="0" y1="0" x2="0" y2="1"><stop offset="0" stop-color="#111722"/><stop offset="1" stop-color="#0d1117"/></linearGradient><filter id="glow"><feGaussianBlur stdDeviation="2.2" result="blur"/><feMerge><feMergeNode in="blur"/><feMergeNode in="SourceGraphic"/></feMerge></filter></defs><rect width="420" height="300" rx="12" fill="url(#bg)"/><rect x="0.5" y="0.5" width="419" height="299" rx="12" fill="none" stroke="#30363d"/><line x1="0" y1="30" x2="420" y2="30" stroke="#30363d"/><circle cx="20" cy="15" r="5" fill="#ff5f56"/><circle cx="36" cy="15" r="5" fill="#ffbd2e"/><circle cx="52" cy="15" r="5" fill="#27c93f"/><text x="210.0" y="19" fill="#7d8590" font-size="12" text-anchor="middle">eeminionn@github: ~$ ./bench-notes</text><text x="22" y="60" fill="#3fb950" font-size="13" font-weight="700">$ cat notes/current.txt</text><text x="22" y="88" fill="#ffa657" font-size="12" font-weight="700">now</text><text x="106" y="88" fill="#e6edf3" font-size="12" font-weight="400">robot kits + workshop material</text><text x="22" y="112" fill="#ffa657" font-size="12" font-weight="700">repo style</text><text x="106" y="112" fill="#e6edf3" font-size="12" font-weight="400">code, notes, tests, guides</text><text x="22" y="136" fill="#ffa657" font-size="12" font-weight="700">method</text><text x="106" y="136" fill="#e6edf3" font-size="12" font-weight="400">depends on the project</text><text x="22" y="160" fill="#ffa657" font-size="12" font-weight="700">bias</text><text x="106" y="160" fill="#e6edf3" font-size="12" font-weight="400">make it work, then explain it</text><line x1="22" y1="178" x2="398" y2="178" stroke="#30363d"/><text x="22" y="205" fill="#58a6ff" font-size="12" font-weight="700">repo artifacts</text><text x="34" y="229" fill="#3fb950" font-size="11" font-weight="700">[x]</text><text x="72" y="229" fill="#c9d1d9" font-size="11.5" font-weight="400">firmware sketches</text><text x="34" y="249" fill="#3fb950" font-size="11" font-weight="700">[x]</text><text x="72" y="249" fill="#c9d1d9" font-size="11.5" font-weight="400">fabrication / CNC notes</text><text x="34" y="269" fill="#3fb950" font-size="11" font-weight="700">[x]</text><text x="72" y="269" fill="#c9d1d9" font-size="11.5" font-weight="400">student-facing docs</text><text x="34" y="289" fill="#22d3ee" font-size="11" font-weight="700">[~]</text><text x="72" y="289" fill="#c9d1d9" font-size="11.5" font-weight="400">cleaner READMEs</text><circle cx="358" cy="54" r="4" fill="#3fb950"><animate attributeName="opacity" values="0.35;1;0.35" dur="1.4s" begin="0.00s" repeatCount="indefinite"/></circle><circle cx="374" cy="54" r="4" fill="#22d3ee"><animate attributeName="opacity" values="0.35;1;0.35" dur="1.4s" begin="0.22s" repeatCount="indefinite"/></circle><circle cx="390" cy="54" r="4" fill="#ffa657"><animate attributeName="opacity" values="0.35;1;0.35" dur="1.4s" begin="0.44s" repeatCount="indefinite"/></circle></svg>