<svg xmlns="http://www.w3.org/2000/svg" width="420" height="300" viewBox="0 0 420 300" font-family="ui-monospace, SFMono-Regular, Menlo, Consolas, monospace"><defs><linearGradient id="bg" x1="0" y1="0" x2="0" y2="1"><stop offset="0" stop-color="#111722"/><stop offset="1" stop-color="#0d1117"/></linearGradient><filter id="glow"><feGaussianBlur stdDeviation="2.2" result="blur"/><feMerge><feMergeNode in="blur"/><feMergeNode in="SourceGraphic"/></feMerge></filter></defs><rect width="420" height="300" rx="12" fill="url(#bg)"/><rect x="0.5" y="0.5" width="419" height="299" rx="12" fill="none" stroke="#30363d"/><line x1="0" y1="30" x2="420" y2="30" stroke="#30363d"/><circle cx="20" cy="15" r="5" fill="#ff5f56"/><circle cx="36" cy="15" r="5" fill="#ffbd2e"/><circle cx="52" cy="15" r="5" fill="#27c93f"/><text x="210.0" y="19" fill="#7d8590" font-size="12" text-anchor="middle">eeminionn@github: ~$ ./lab-status</text><text x="22" y="60" fill="#3fb950" font-size="13" font-weight="700">$ scan --profile Emilio_Abarca</text><text x="22" y="86" fill="#ffa657" font-size="12" font-weight="700">status</text><text x="92" y="86" fill="#e6edf3" font-size="12" font-weight="400">building at the hardware/software edge</text><text x="22" y="110" fill="#ffa657" font-size="12" font-weight="700">mode</text><text x="92" y="110" fill="#e6edf3" font-size="12" font-weight="400">prototype -&gt; test -&gt; document</text><text x="22" y="134" fill="#ffa657" font-size="12" font-weight="700">signal</text><text x="92" y="134" fill="#e6edf3" font-size="12" font-weight="400">robotics, fabrication, interaction</text><text x="22" y="166" fill="#7d8590" font-size="11">hardware + firmware integration</text><rect x="22" y="174" width="190" height="8" rx="4" fill="#161b22" stroke="#30363d"/><rect x="22" y="174" width="167.2" height="8" rx="4" fill="#22d3ee" opacity="0.22"/><rect x="22" y="174" width="0" height="8" rx="4" fill="#22d3ee"><animate attributeName="width" from="0" to="167.2" dur="1.2s" begin="0.25s" fill="freeze"/></rect><text x="22" y="204" fill="#7d8590" font-size="11">workshop-ready documentation</text><rect x="22" y="212" width="190" height="8" rx="4" fill="#161b22" stroke="#30363d"/><rect x="22" y="212" width="148.2" height="8" rx="4" fill="#3fb950" opacity="0.22"/><rect x="22" y="212" width="0" height="8" rx="4" fill="#3fb950"><animate attributeName="width" from="0" to="148.2" dur="1.2s" begin="0.25s" fill="freeze"/></rect><text x="22" y="242" fill="#7d8590" font-size="11">design-to-prototype fluency</text><rect x="22" y="250" width="190" height="8" rx="4" fill="#161b22" stroke="#30363d"/><rect x="22" y="250" width="159.6" height="8" rx="4" fill="#a371f7" opacity="0.22"/><rect x="22" y="250" width="0" height="8" rx="4" fill="#a371f7"><animate attributeName="width" from="0" to="159.6" dur="1.2s" begin="0.25s" fill="freeze"/></rect><circle cx="358" cy="54" r="4" fill="#3fb950"><animate attributeName="opacity" values="0.35;1;0.35" dur="1.4s" begin="0.00s" repeatCount="indefinite"/></circle><circle cx="374" cy="54" r="4" fill="#22d3ee"><animate attributeName="opacity" values="0.35;1;0.35" dur="1.4s" begin="0.22s" repeatCount="indefinite"/></circle><circle cx="390" cy="54" r="4" fill="#ffa657"><animate attributeName="opacity" values="0.35;1;0.35" dur="1.4s" begin="0.44s" repeatCount="indefinite"/></circle></svg>