<svg xmlns="http://www.w3.org/2000/svg" width="520" height="220" viewBox="0 0 520 220" font-family="ui-monospace, SFMono-Regular, Menlo, Consolas, monospace"><defs><linearGradient id="bg" x1="0" y1="0" x2="0" y2="1"><stop offset="0" stop-color="#111722"/><stop offset="1" stop-color="#0d1117"/></linearGradient></defs><rect width="520" height="220" rx="10" fill="url(#bg)"/><rect x="0.5" y="0.5" width="519" height="219" rx="10" fill="none" stroke="#30363d"/><line x1="0" y1="30" x2="520" y2="30" stroke="#30363d"/><circle cx="20" cy="15" r="5" fill="#ff5f56"/><circle cx="36" cy="15" r="5" fill="#ffbd2e"/><circle cx="52" cy="15" r="5" fill="#27c93f"/><text x="260.0" y="19" fill="#7d8590" font-size="11.5" text-anchor="middle">eeminionn@github: ~$ ./selected-work.sh</text><text x="20" y="55" fill="#3fb950" font-size="13" font-weight="700">$ open --proof</text><text x="150" y="55" fill="#c9d1d9" font-size="11.5">code, build logs and working interactions</text><g><rect x="20" y="68" width="480" height="40" rx="6" fill="#161b22" stroke="#30363d"/><rect x="20" y="68" width="4" height="40" rx="2" fill="#58a6ff"/><text x="34" y="85" fill="#58a6ff" font-size="12" font-weight="700">01</text><text x="61" y="85" fill="#e6edf3" font-size="15" font-weight="700">BattleBots 2026-1</text><text x="484" y="84" fill="#58a6ff" font-size="9" font-weight="700" text-anchor="end">EMBEDDED</text><text x="61" y="101" fill="#7d8590" font-size="11.5">ESP32-S3 | Wi-Fi control | mecanum kit</text></g><circle cx="488" cy="99" r="2.2" fill="#58a6ff" opacity="0.8"><animate attributeName="opacity" values="0.25;1;0.25" dur="1.6s" begin="0.00s" repeatCount="indefinite"/></circle><g><rect x="20" y="116" width="480" height="40" rx="6" fill="#161b22" stroke="#30363d"/><rect x="20" y="116" width="4" height="40" rx="2" fill="#ffa657"/><text x="34" y="133" fill="#ffa657" font-size="12" font-weight="700">02</text><text x="61" y="133" fill="#e6edf3" font-size="15" font-weight="700">Casino Diorama</text><text x="484" y="132" fill="#ffa657" font-size="9" font-weight="700" text-anchor="end">FABRICATION</text><text x="61" y="149" fill="#7d8590" font-size="11.5">Blender/Fusion | 3D print | CNC PCB | Arduino</text></g><circle cx="488" cy="147" r="2.2" fill="#ffa657" opacity="0.8"><animate attributeName="opacity" values="0.25;1;0.25" dur="1.6s" begin="0.18s" repeatCount="indefinite"/></circle><g><rect x="20" y="164" width="480" height="40" rx="6" fill="#161b22" stroke="#30363d"/><rect x="20" y="164" width="4" height="40" rx="2" fill="#a371f7"/><text x="34" y="181" fill="#a371f7" font-size="12" font-weight="700">03</text><text x="61" y="181" fill="#e6edf3" font-size="15" font-weight="700">Mundial Infinito</text><text x="484" y="180" fill="#a371f7" font-size="9" font-weight="700" text-anchor="end">CREATIVE CODE</text><text x="61" y="197" fill="#7d8590" font-size="11.5">p5.js | microphone bands | audio-reactive game</text></g><circle cx="488" cy="195" r="2.2" fill="#a371f7" opacity="0.8"><animate attributeName="opacity" values="0.25;1;0.25" dur="1.6s" begin="0.36s" repeatCount="indefinite"/></circle></svg>