<svg xmlns="http://www.w3.org/2000/svg" width="420" height="300" viewBox="0 0 420 300" font-family="ui-monospace, SFMono-Regular, Menlo, Consolas, monospace"><defs><linearGradient id="bg" x1="0" y1="0" x2="0" y2="1"><stop offset="0" stop-color="#111722"/><stop offset="1" stop-color="#0d1117"/></linearGradient><filter id="glow"><feGaussianBlur stdDeviation="2.2" result="blur"/><feMerge><feMergeNode in="blur"/><feMergeNode in="SourceGraphic"/></feMerge></filter></defs><rect width="420" height="300" rx="12" fill="url(#bg)"/><rect x="0.5" y="0.5" width="419" height="299" rx="12" fill="none" stroke="#30363d"/><line x1="0" y1="30" x2="420" y2="30" stroke="#30363d"/><circle cx="20" cy="15" r="5" fill="#ff5f56"/><circle cx="36" cy="15" r="5" fill="#ffbd2e"/><circle cx="52" cy="15" r="5" fill="#27c93f"/><text x="210.0" y="19" fill="#7d8590" font-size="12" text-anchor="middle">eeminionn@github: ~$ ./tools-used</text><text x="22" y="60" fill="#3fb950" font-size="13" font-weight="700">$ grep -R tools ./repos</text><text x="22" y="82" fill="#c9d1d9" font-size="12" font-weight="400">Tools I actually reach for. Not a fixed stack.</text><rect x="22" y="90" width="376" height="28" rx="7" fill="#161b22" stroke="#30363d" opacity="0.95"/><circle cx="36" cy="104" r="4" fill="#58a6ff"/><text x="48" y="108" fill="#e6edf3" font-size="12" font-weight="700">Code</text><rect x="158" y="88" width="52.0" height="24" rx="6" fill="#58a6ff" fill-opacity="0.12" stroke="#58a6ff" stroke-opacity="0.55"/><text x="168" y="104" fill="#e6edf3" font-size="11" font-weight="700">C/C++</text><rect x="224.0" y="88" width="59.2" height="24" rx="6" fill="#58a6ff" fill-opacity="0.12" stroke="#58a6ff" stroke-opacity="0.55"/><text x="234.0" y="104" fill="#e6edf3" font-size="11" font-weight="700">Python</text><rect x="297.2" y="88" width="52.0" height="24" rx="6" fill="#58a6ff" fill-opacity="0.12" stroke="#58a6ff" stroke-opacity="0.55"/><text x="307.2" y="104" fill="#e6edf3" font-size="11" font-weight="700">JS/TS</text><rect x="22" y="122" width="376" height="28" rx="7" fill="#161b22" stroke="#30363d" opacity="0.95"/><circle cx="36" cy="136" r="4" fill="#22d3ee"/><text x="48" y="140" fill="#e6edf3" font-size="12" font-weight="700">Embedded</text><rect x="158" y="120" width="66.4" height="24" rx="6" fill="#22d3ee" fill-opacity="0.12" stroke="#22d3ee" stroke-opacity="0.55"/><text x="168" y="136" fill="#e6edf3" font-size="11" font-weight="700">Arduino</text><rect x="238.4" y="120" width="52.0" height="24" rx="6" fill="#22d3ee" fill-opacity="0.12" stroke="#22d3ee" stroke-opacity="0.55"/><text x="248.4" y="136" fill="#e6edf3" font-size="11" font-weight="700">ESP32</text><rect x="304.4" y="120" width="66.4" height="24" rx="6" fill="#22d3ee" fill-opacity="0.12" stroke="#22d3ee" stroke-opacity="0.55"/><text x="314.4" y="136" fill="#e6edf3" font-size="11" font-weight="700">sensors</text><rect x="22" y="154" width="376" height="28" rx="7" fill="#161b22" stroke="#30363d" opacity="0.95"/><circle cx="36" cy="168" r="4" fill="#3fb950"/><text x="48" y="172" fill="#e6edf3" font-size="12" font-weight="700">Electronics</text><rect x="158" y="152" width="52.0" height="24" rx="6" fill="#3fb950" fill-opacity="0.12" stroke="#3fb950" stroke-opacity="0.55"/><text x="168" y="168" fill="#e6edf3" font-size="11" font-weight="700">KiCad</text><rect x="224.0" y="152" width="52.0" height="24" rx="6" fill="#3fb950" fill-opacity="0.12" stroke="#3fb950" stroke-opacity="0.55"/><text x="234.0" y="168" fill="#e6edf3" font-size="11" font-weight="700">Eagle</text><rect x="290.0" y="152" width="44.8" height="24" rx="6" fill="#3fb950" fill-opacity="0.12" stroke="#3fb950" stroke-opacity="0.55"/><text x="300.0" y="168" fill="#e6edf3" font-size="11" font-weight="700">PCBs</text><rect x="22" y="186" width="376" height="28" rx="7" fill="#161b22" stroke="#30363d" opacity="0.95"/><circle cx="36" cy="200" r="4" fill="#ffa657"/><text x="48" y="204" fill="#e6edf3" font-size="12" font-weight="700">Fabrication</text><rect x="158" y="184" width="59.2" height="24" rx="6" fill="#ffa657" fill-opacity="0.12" stroke="#ffa657" stroke-opacity="0.55"/><text x="168" y="200" fill="#e6edf3" font-size="11" font-weight="700">Fusion</text><rect x="231.2" y="184" width="66.4" height="24" rx="6" fill="#ffa657" fill-opacity="0.12" stroke="#ffa657" stroke-opacity="0.55"/><text x="241.2" y="200" fill="#e6edf3" font-size="11" font-weight="700">Blender</text><rect x="311.6" y="184" width="37.6" height="24" rx="6" fill="#ffa657" fill-opacity="0.12" stroke="#ffa657" stroke-opacity="0.55"/><text x="321.6" y="200" fill="#e6edf3" font-size="11" font-weight="700">CNC</text><rect x="22" y="218" width="376" height="28" rx="7" fill="#161b22" stroke="#30363d" opacity="0.95"/><circle cx="36" cy="232" r="4" fill="#a371f7"/><text x="48" y="236" fill="#e6edf3" font-size="12" font-weight="700">Media</text><rect x="158" y="216" width="80.8" height="24" rx="6" fill="#a371f7" fill-opacity="0.12" stroke="#a371f7" stroke-opacity="0.55"/><text x="168" y="232" fill="#e6edf3" font-size="11" font-weight="700">MadMapper</text><rect x="252.8" y="216" width="88.0" height="24" rx="6" fill="#a371f7" fill-opacity="0.12" stroke="#a371f7" stroke-opacity="0.55"/><text x="262.8" y="232" fill="#e6edf3" font-size="11" font-weight="700">projection</text><rect x="354.8" y="216" width="30.4" height="24" rx="6" fill="#a371f7" fill-opacity="0.12" stroke="#a371f7" stroke-opacity="0.55"/><text x="364.8" y="232" fill="#e6edf3" font-size="11" font-weight="700">UX</text><rect x="22" y="250" width="376" height="28" rx="7" fill="#161b22" stroke="#30363d" opacity="0.95"/><circle cx="36" cy="264" r="4" fill="#e4405f"/><text x="48" y="268" fill="#e6edf3" font-size="12" font-weight="700">Docs</text><rect x="158" y="248" width="59.2" height="24" rx="6" fill="#e4405f" fill-opacity="0.12" stroke="#e4405f" stroke-opacity="0.55"/><text x="168" y="264" fill="#e6edf3" font-size="11" font-weight="700">README</text><rect x="231.2" y="248" width="59.2" height="24" rx="6" fill="#e4405f" fill-opacity="0.12" stroke="#e4405f" stroke-opacity="0.55"/><text x="241.2" y="264" fill="#e6edf3" font-size="11" font-weight="700">guides</text><rect x="304.4" y="248" width="73.6" height="24" rx="6" fill="#e4405f" fill-opacity="0.12" stroke="#e4405f" stroke-opacity="0.55"/><text x="314.4" y="264" fill="#e6edf3" font-size="11" font-weight="700">analysis</text></svg>